# xmcd CD database generated by RipIT
#
# Track frame offsets:
# 150
# 18150
# 38800
# 58800
# 73475
# 92325
# 112975
# 130825
# 147900
# 167900
# 189675
# 210225
# 228225
# 244500
# 264725
# 283300
# 300625
#
# Disc length: 4542 seconds
#
# Revision: 32
# Processed by: cddbd v1.5.2PL0 Copyright (c) Steve Scherf et al.
# Submitted via: RipIT 3.8.0 www.suwald.com/ripit/ripit.html on 2011-02-10 at 17:24
#
DISCID=f311bc11
DTITLE=Various Artist - Kuschelrock 9 [CD 1)
DYEAR=1995
DGENRE=Easy Listening
TTITLE0=Take That - Back For Good
TTITLE1=Connells - '74 - '75
TTITLE2=Roxette - Vulnerable
TTITLE3=Bruce Springsteen - Streets Of Philadelphia
TTITLE4=Celine Dion - Think Twice
TTITLE5=Peter Cetera with Crystal Bernard - Forever Tonight
TTITLE6=Boyz II Men - I'll Make Love To You
TTITLE7=Janet Jackson - Again
TTITLE8=East 17 - Stay Another Day
TTITLE9=Annie Lennox - No More I Love You's
TTITLE10=Phil Collins - Do You Remember
TTITLE11=Robert Palmer - Know By Now
TTITLE12=Mike and The Mechanics - Over My Shoulder
TTITLE13=Toni Braxton - Breathe Again
TTITLE14=Joshua Kadison - Beautiful In My Eyes
TTITLE15=Scarlet - Independent Love Song
TTITLE16=Guns N' Roses - November Rain
EXTD=
EXTT0=
EXTT1=
EXTT2=
EXTT3=
EXTT4=
EXTT5=
EXTT6=
EXTT7=
EXTT8=
EXTT9=
EXTT10=
EXTT11=
EXTT12=
EXTT13=
EXTT14=
EXTT15=
EXTT16=
PLAYORDER=
